 <svg version="1.0" xmlns="http://www.w3.org/2000/svg" width="700.000000pt" height="700.000000pt" viewBox="0 0 700.000000 700.000000" preserveAspectRatio="xMidYMid meet">
<metadata>
Created by potrace 1.12, written by Peter Selinger 2001-2015
</metadata>
<g transform="translate(0.000000,700.000000) scale(0.100000,-0.100000)" fill="#000000" stroke="none">
<path d="M3385 6989 c-55 -5 -165 -20 -243 -34 -332 -58 -573 -137 -922 -303
-58 -27 -154 -70 -215 -96 -263 -110 -594 -318 -820 -514 -102 -89 -289 -280
-379 -387 -355 -422 -596 -927 -700 -1471 -45 -235 -59 -410 -53 -689 10 -413
43 -586 216 -1130 83 -260 119 -353 211 -540 216 -441 563 -852 965 -1142 305
-219 603 -366 950 -467 612 -178 828 -216 1225 -216 1128 0 2168 581 2768
1547 261 421 418 884 472 1398 6 55 20 152 31 215 35 197 49 357 49 580 0 538
-108 998 -345 1465 -513 1014 -1497 1683 -2625 1785 -134 12 -441 11 -585 -1z
m642 -49 c1414 -151 2563 -1220 2822 -2625 39 -214 46 -303 45 -590 -2 -302
-15 -422 -27 -238 -8 114 -38 332 -61 438 -92 416 -142 587 -248 839 -321 766
-973 1410 -1753 1731 -139 57 -545 192 -695 230 -453 116 -931 133 -1390 49
-74 -14 -144 -27 -155 -30 -13 -4 -17 -3 -10 4 6 5 68 29 138 51 270 87 520
134 827 155 87 6 400 -3 507 -14z m-376 -175 c207 -23 205 -32 -8 -27 -444 11
-871 -66 -1281 -229 -460 -183 -897 -488 -1215 -847 -140 -158 -149 -168 -141
-152 40 82 227 312 384 474 223 229 440 399 694 544 178 103 571 207 901 241
142 15 516 12 666 -4z m114 -75 c297 -22 577 -77 755 -146 126 -50 350 -164
478 -244 131 -82 330 -231 402 -299 l55 -52 -45 29 c-547 355 -1146 533 -1794
533 -525 0 -1007 -114 -1471 -349 -158 -79 -587 -349 -740 -465 -186 -141
-408 -352 -539 -515 -32 -40 -61 -70 -64 -68 -6 7 171 272 242 361 128 160
374 407 531 531 98 78 331 231 450 296 529 290 1161 430 1740 388z m280 -249
c266 -38 468 -89 700 -176 428 -160 872 -446 1067 -689 170 -211 361 -532 462
-780 188 -455 274 -991 236 -1451 -25 -291 -69 -519 -150 -764 -47 -145 -90
-255 -96 -248 -2 2 1 19 6 38 23 77 71 312 87 424 25 171 24 650 0 822 -95
664 -379 1253 -837 1736 -783 825 -1963 1155 -3063 857 -81 -22 -170 -49 -198
-60 -27 -11 -55 -20 -62 -20 -39 1 217 111 407 175 234 78 465 127 737 155
143 15 545 4 704 -19z m-2245 -35 c0 -3 -42 -37 -92 -77 -230 -180 -400 -347
-573 -564 -176 -221 -307 -441 -465 -785 -39 -85 -116 -245 -170 -355 -152
-310 -241 -570 -294 -865 -37 -206 -49 -372 -44 -637 4 -257 -2 -261 -36 -28
-103 685 26 1410 356 2010 155 281 318 496 558 735 225 225 410 368 665 517
96 56 95 55 95 49z m3505 -224 c217 -140 363 -261 560 -463 207 -212 349 -399
495 -653 58 -102 130 -246 130 -262 0 -4 -32 47 -71 112 -167 278 -281 418
-623 762 -344 347 -476 463 -693 607 -40 26 -73 50 -73 52 0 9 175 -90 275
-155z m-1610 64 c364 -56 652 -148 965 -307 816 -415 1405 -1172 1605 -2065
100 -449 97 -933 -10 -1379 -39 -162 -98 -346 -157 -484 -87 -205 -270 -452
-518 -702 -227 -228 -470 -415 -700 -537 -181 -97 -466 -172 -840 -224 -125
-17 -583 -17 -710 0 -276 38 -450 77 -675 154 -768 261 -1400 794 -1793 1514
-129 236 -235 509 -297 769 -65 274 -88 472 -88 750 -1 209 1 225 27 320 108
399 264 734 490 1055 250 356 605 686 896 834 345 176 695 277 1105 320 97 10
604 -3 700 -18z m-2476 -788 c-290 -323 -481 -630 -640 -1028 -32 -80 -58
-141 -59 -137 -1 26 67 307 99 406 30 94 50 136 105 217 130 196 302 396 476
554 55 49 102 90 105 90 3 0 -36 -46 -86 -102z m4965 -272 c214 -284 369 -581
481 -920 169 -510 149 -1190 -52 -1801 -101 -310 -322 -648 -628 -964 -105
-108 -283 -267 -290 -259 -3 3 16 31 41 64 125 160 329 505 493 833 147 293
261 669 306 1011 23 175 30 504 16 675 -45 533 -191 980 -470 1445 l-81 135
50 -53 c27 -29 88 -104 134 -166z m-5707 -888 c-9 -51 -21 -140 -27 -198 -7
-58 -22 -168 -35 -245 -13 -77 -29 -189 -35 -250 -26 -247 -27 -253 -29 -129
-1 138 14 329 39 499 21 136 89 430 97 421 3 -3 -2 -47 -10 -98z m-82 -64
c-54 -231 -75 -403 -82 -666 -9 -374 27 -646 152 -1131 79 -306 210 -612 384
-897 l71 -115 -56 60 c-186 200 -423 586 -533 869 -45 116 -82 275 -107 461
-25 182 -25 598 0 780 17 128 60 337 91 445 25 86 89 270 92 266 2 -2 -3 -35
-12 -72z m45 -749 c25 -263 62 -460 130 -685 257 -850 863 -1569 1660 -1970
265 -133 603 -245 890 -295 396 -68 891 -60 1238 20 133 31 103 11 -69 -45
-146 -47 -387 -103 -549 -126 -153 -21 -586 -30 -734 -15 -384 41 -594 98
-871 238 -650 327 -1153 838 -1466 1488 -122 252 -194 470 -229 688 -25 160
-43 442 -35 567 11 184 17 261 20 258 2 -2 8 -57 15 -123z m6387 -317 c-5
-134 -9 -166 -36 -253 -17 -55 -29 -82 -26 -60 3 22 14 105 25 185 11 80 22
175 26 213 10 119 17 71 11 -85z m-73 -605 c-135 -605 -429 -1139 -869 -1578
-515 -515 -1169 -834 -1887 -919 -269 -32 -609 -29 -828 9 l-75 12 160 2 c431
4 819 80 1185 231 69 29 201 83 293 121 481 196 836 432 1172 781 201 208 381
450 514 691 73 133 271 561 318 687 20 56 39 98 41 92 2 -6 -9 -63 -24 -129z
m-6247 -660 c134 -234 303 -440 624 -763 392 -394 521 -501 834 -690 124 -75
123 -81 -2 -24 -503 229 -985 658 -1295 1152 -67 106 -198 349 -198 366 0 15
11 2 37 -41z m373 -262 c229 -334 542 -643 883 -870 42 -29 77 -54 77 -57 0
-8 -140 70 -250 139 -148 92 -318 223 -400 307 -85 87 -219 266 -314 422 -61
100 -186 339 -186 355 0 5 30 -41 66 -101 36 -60 92 -148 124 -195z m5363 68
c-74 -125 -286 -381 -439 -529 -215 -208 -502 -418 -721 -529 -84 -42 -88 -39
-17 11 108 76 247 192 349 289 55 52 152 134 216 181 195 146 448 387 574 547
53 67 66 77 38 30z m-531 -361 c-115 -151 -209 -254 -269 -294 -80 -53 -235
-144 -246 -144 -5 0 44 41 109 92 66 51 198 171 294 267 96 97 177 175 179
174 2 -2 -28 -44 -67 -95z m-417 -448 c-3 -5 -52 -46 -108 -91 -173 -140 -440
-307 -582 -365 -135 -55 -453 -129 -675 -156 -141 -17 -593 -17 -733 1 -177
22 -173 29 13 24 352 -11 754 46 1085 153 158 52 267 96 457 185 91 43 190 88
220 100 63 25 289 137 303 150 12 12 28 12 20 -1z m-3465 -234 c170 -87 304
-140 572 -229 356 -119 542 -163 808 -193 242 -27 724 -13 892 26 64 14 89 11
43 -6 -146 -54 -445 -107 -708 -125 -242 -17 -568 8 -795 61 -310 73 -844 369
-1107 614 l-60 56 115 -71 c63 -38 171 -99 240 -133z"></path>
</g>
</svg>